<svg width="171" height="179" viewBox="0 0 171 179" fill="none" xmlns="http://www.w3.org/2000/svg">
<path id="Pattern" fill-rule="evenodd" clip-rule="evenodd" d="M171 4.77832C171 7.2636 168.985 9.27832 166.5 9.27832C164.015 9.27832 162 7.2636 162 4.77832C162 2.29304 164.015 0.27832 166.5 0.27832C168.985 0.27832 171 2.29304 171 4.77832ZM166.5 33.2783C168.985 33.2783 171 31.2636 171 28.7783C171 26.293 168.985 24.2783 166.5 24.2783C164.015 24.2783 162 26.293 162 28.7783C162 31.2636 164.015 33.2783 166.5 33.2783ZM171 52.7783C171 55.2636 168.985 57.2783 166.5 57.2783C164.015 57.2783 162 55.2636 162 52.7783C162 50.293 164.015 48.2783 166.5 48.2783C168.985 48.2783 171 50.293 171 52.7783ZM166.5 81.2783C168.985 81.2783 171 79.2636 171 76.7783C171 74.293 168.985 72.2783 166.5 72.2783C164.015 72.2783 162 74.293 162 76.7783C162 79.2636 164.015 81.2783 166.5 81.2783ZM171 100.778C171 103.264 168.985 105.278 166.5 105.278C164.015 105.278 162 103.264 162 100.778C162 98.293 164.015 96.2783 166.5 96.2783C168.985 96.2783 171 98.293 171 100.778ZM166.5 129.278C168.985 129.278 171 127.264 171 124.778C171 122.293 168.985 120.278 166.5 120.278C164.015 120.278 162 122.293 162 124.778C162 127.264 164.015 129.278 166.5 129.278ZM171 148.778C171 151.264 168.985 153.278 166.5 153.278C164.015 153.278 162 151.264 162 148.778C162 146.293 164.015 144.278 166.5 144.278C168.985 144.278 171 146.293 171 148.778ZM4.5 177.278C6.98528 177.278 9 175.264 9 172.778C9 170.293 6.98528 168.278 4.5 168.278C2.01472 168.278 0 170.293 0 172.778C0 175.264 2.01472 177.278 4.5 177.278ZM36 172.778C36 175.264 33.9853 177.278 31.5 177.278C29.0147 177.278 27 175.264 27 172.778C27 170.293 29.0147 168.278 31.5 168.278C33.9853 168.278 36 170.293 36 172.778ZM58.5 177.278C60.9853 177.278 63 175.264 63 172.778C63 170.293 60.9853 168.278 58.5 168.278C56.0147 168.278 54 170.293 54 172.778C54 175.264 56.0147 177.278 58.5 177.278ZM90 172.778C90 175.264 87.9853 177.278 85.5 177.278C83.0147 177.278 81 175.264 81 172.778C81 170.293 83.0147 168.278 85.5 168.278C87.9853 168.278 90 170.293 90 172.778ZM112.5 177.278C114.985 177.278 117 175.264 117 172.778C117 170.293 114.985 168.278 112.5 168.278C110.015 168.278 108 170.293 108 172.778C108 175.264 110.015 177.278 112.5 177.278ZM144 172.778C144 175.264 141.985 177.278 139.5 177.278C137.015 177.278 135 175.264 135 172.778C135 170.293 137.015 168.278 139.5 168.278C141.985 168.278 144 170.293 144 172.778ZM171 172.778C171 175.264 168.985 177.278 166.5 177.278C164.015 177.278 162 175.264 162 172.778C162 170.293 164.015 168.278 166.5 168.278C168.985 168.278 171 170.293 171 172.778ZM139.5 153.278C141.985 153.278 144 151.264 144 148.778C144 146.293 141.985 144.278 139.5 144.278C137.015 144.278 135 146.293 135 148.778C135 151.264 137.015 153.278 139.5 153.278ZM117 148.778C117 151.264 114.985 153.278 112.5 153.278C110.015 153.278 108 151.264 108 148.778C108 146.293 110.015 144.278 112.5 144.278C114.985 144.278 117 146.293 117 148.778ZM85.5 153.278C87.9853 153.278 90 151.264 90 148.778C90 146.293 87.9853 144.278 85.5 144.278C83.0147 144.278 81 146.293 81 148.778C81 151.264 83.0147 153.278 85.5 153.278ZM63 148.778C63 151.264 60.9853 153.278 58.5 153.278C56.0147 153.278 54 151.264 54 148.778C54 146.293 56.0147 144.278 58.5 144.278C60.9853 144.278 63 146.293 63 148.778ZM31.5 153.278C33.9853 153.278 36 151.264 36 148.778C36 146.293 33.9853 144.278 31.5 144.278C29.0147 144.278 27 146.293 27 148.778C27 151.264 29.0147 153.278 31.5 153.278ZM9 148.778C9 151.264 6.98528 153.278 4.5 153.278C2.01472 153.278 0 151.264 0 148.778C0 146.293 2.01472 144.278 4.5 144.278C6.98528 144.278 9 146.293 9 148.778ZM144 124.778C144 127.264 141.985 129.278 139.5 129.278C137.015 129.278 135 127.264 135 124.778C135 122.293 137.015 120.278 139.5 120.278C141.985 120.278 144 122.293 144 124.778ZM112.5 129.278C114.985 129.278 117 127.264 117 124.778C117 122.293 114.985 120.278 112.5 120.278C110.015 120.278 108 122.293 108 124.778C108 127.264 110.015 129.278 112.5 129.278ZM90 124.778C90 127.264 87.9853 129.278 85.5 129.278C83.0147 129.278 81 127.264 81 124.778C81 122.293 83.0147 120.278 85.5 120.278C87.9853 120.278 90 122.293 90 124.778ZM58.5 129.278C60.9853 129.278 63 127.264 63 124.778C63 122.293 60.9853 120.278 58.5 120.278C56.0147 120.278 54 122.293 54 124.778C54 127.264 56.0147 129.278 58.5 129.278ZM36 124.778C36 127.264 33.9853 129.278 31.5 129.278C29.0147 129.278 27 127.264 27 124.778C27 122.293 29.0147 120.278 31.5 120.278C33.9853 120.278 36 122.293 36 124.778ZM4.5 129.278C6.98528 129.278 9 127.264 9 124.778C9 122.293 6.98528 120.278 4.5 120.278C2.01472 120.278 0 122.293 0 124.778C0 127.264 2.01472 129.278 4.5 129.278ZM139.5 105.278C141.985 105.278 144 103.264 144 100.778C144 98.293 141.985 96.2783 139.5 96.2783C137.015 96.2783 135 98.293 135 100.778C135 103.264 137.015 105.278 139.5 105.278ZM117 100.778C117 103.264 114.985 105.278 112.5 105.278C110.015 105.278 108 103.264 108 100.778C108 98.293 110.015 96.2783 112.5 96.2783C114.985 96.2783 117 98.293 117 100.778ZM85.5 105.278C87.9853 105.278 90 103.264 90 100.778C90 98.293 87.9853 96.2783 85.5 96.2783C83.0147 96.2783 81 98.293 81 100.778C81 103.264 83.0147 105.278 85.5 105.278ZM63 100.778C63 103.264 60.9853 105.278 58.5 105.278C56.0147 105.278 54 103.264 54 100.778C54 98.293 56.0147 96.2783 58.5 96.2783C60.9853 96.2783 63 98.293 63 100.778ZM31.5 105.278C33.9853 105.278 36 103.264 36 100.778C36 98.293 33.9853 96.2783 31.5 96.2783C29.0147 96.2783 27 98.293 27 100.778C27 103.264 29.0147 105.278 31.5 105.278ZM9 100.778C9 103.264 6.98528 105.278 4.5 105.278C2.01472 105.278 0 103.264 0 100.778C0 98.293 2.01472 96.2783 4.5 96.2783C6.98528 96.2783 9 98.293 9 100.778ZM144 76.7783C144 79.2636 141.985 81.2783 139.5 81.2783C137.015 81.2783 135 79.2636 135 76.7783C135 74.293 137.015 72.2783 139.5 72.2783C141.985 72.2783 144 74.293 144 76.7783ZM112.5 81.2783C114.985 81.2783 117 79.2636 117 76.7783C117 74.293 114.985 72.2783 112.5 72.2783C110.015 72.2783 108 74.293 108 76.7783C108 79.2636 110.015 81.2783 112.5 81.2783ZM90 76.7783C90 79.2636 87.9853 81.2783 85.5 81.2783C83.0147 81.2783 81 79.2636 81 76.7783C81 74.293 83.0147 72.2783 85.5 72.2783C87.9853 72.2783 90 74.293 90 76.7783ZM58.5 81.2783C60.9853 81.2783 63 79.2636 63 76.7783C63 74.293 60.9853 72.2783 58.5 72.2783C56.0147 72.2783 54 74.293 54 76.7783C54 79.2636 56.0147 81.2783 58.5 81.2783ZM36 76.7783C36 79.2636 33.9853 81.2783 31.5 81.2783C29.0147 81.2783 27 79.2636 27 76.7783C27 74.293 29.0147 72.2783 31.5 72.2783C33.9853 72.2783 36 74.293 36 76.7783ZM4.5 81.2783C6.98528 81.2783 9 79.2636 9 76.7783C9 74.293 6.98528 72.2783 4.5 72.2783C2.01472 72.2783 0 74.293 0 76.7783C0 79.2636 2.01472 81.2783 4.5 81.2783ZM139.5 57.2783C141.985 57.2783 144 55.2636 144 52.7783C144 50.293 141.985 48.2783 139.5 48.2783C137.015 48.2783 135 50.293 135 52.7783C135 55.2636 137.015 57.2783 139.5 57.2783ZM117 52.7783C117 55.2636 114.985 57.2783 112.5 57.2783C110.015 57.2783 108 55.2636 108 52.7783C108 50.293 110.015 48.2783 112.5 48.2783C114.985 48.2783 117 50.293 117 52.7783ZM85.5 57.2783C87.9853 57.2783 90 55.2636 90 52.7783C90 50.293 87.9853 48.2783 85.5 48.2783C83.0147 48.2783 81 50.293 81 52.7783C81 55.2636 83.0147 57.2783 85.5 57.2783ZM63 52.7783C63 55.2636 60.9853 57.2783 58.5 57.2783C56.0147 57.2783 54 55.2636 54 52.7783C54 50.293 56.0147 48.2783 58.5 48.2783C60.9853 48.2783 63 50.293 63 52.7783ZM31.5 57.2783C33.9853 57.2783 36 55.2636 36 52.7783C36 50.293 33.9853 48.2783 31.5 48.2783C29.0147 48.2783 27 50.293 27 52.7783C27 55.2636 29.0147 57.2783 31.5 57.2783ZM9 52.7783C9 55.2636 6.98528 57.2783 4.5 57.2783C2.01472 57.2783 0 55.2636 0 52.7783C0 50.293 2.01472 48.2783 4.5 48.2783C6.98528 48.2783 9 50.293 9 52.7783ZM144 28.7783C144 31.2636 141.985 33.2783 139.5 33.2783C137.015 33.2783 135 31.2636 135 28.7783C135 26.293 137.015 24.2783 139.5 24.2783C141.985 24.2783 144 26.293 144 28.7783ZM112.5 33.2783C114.985 33.2783 117 31.2636 117 28.7783C117 26.293 114.985 24.2783 112.5 24.2783C110.015 24.2783 108 26.293 108 28.7783C108 31.2636 110.015 33.2783 112.5 33.2783ZM90 28.7783C90 31.2636 87.9853 33.2783 85.5 33.2783C83.0147 33.2783 81 31.2636 81 28.7783C81 26.293 83.0147 24.2783 85.5 24.2783C87.9853 24.2783 90 26.293 90 28.7783ZM58.5 33.2783C60.9853 33.2783 63 31.2636 63 28.7783C63 26.293 60.9853 24.2783 58.5 24.2783C56.0147 24.2783 54 26.293 54 28.7783C54 31.2636 56.0147 33.2783 58.5 33.2783ZM36 28.7783C36 31.2636 33.9853 33.2783 31.5 33.2783C29.0147 33.2783 27 31.2636 27 28.7783C27 26.293 29.0147 24.2783 31.5 24.2783C33.9853 24.2783 36 26.293 36 28.7783ZM4.5 33.2783C6.98528 33.2783 9 31.2636 9 28.7783C9 26.293 6.98528 24.2783 4.5 24.2783C2.01472 24.2783 0 26.293 0 28.7783C0 31.2636 2.01472 33.2783 4.5 33.2783ZM139.5 9.27832C141.985 9.27832 144 7.2636 144 4.77832C144 2.29304 141.985 0.27832 139.5 0.27832C137.015 0.27832 135 2.29304 135 4.77832C135 7.2636 137.015 9.27832 139.5 9.27832ZM117 4.77832C117 7.2636 114.985 9.27832 112.5 9.27832C110.015 9.27832 108 7.2636 108 4.77832C108 2.29304 110.015 0.27832 112.5 0.27832C114.985 0.27832 117 2.29304 117 4.77832ZM85.5 9.27832C87.9853 9.27832 90 7.2636 90 4.77832C90 2.29304 87.9853 0.27832 85.5 0.27832C83.0147 0.27832 81 2.29304 81 4.77832C81 7.2636 83.0147 9.27832 85.5 9.27832ZM63 4.77832C63 7.2636 60.9853 9.27832 58.5 9.27832C56.0147 9.27832 54 7.2636 54 4.77832C54 2.29304 56.0147 0.27832 58.5 0.27832C60.9853 0.27832 63 2.29304 63 4.77832ZM31.5 9.27832C33.9853 9.27832 36 7.2636 36 4.77832C36 2.29304 33.9853 0.27832 31.5 0.27832C29.0147 0.27832 27 2.29304 27 4.77832C27 7.2636 29.0147 9.27832 31.5 9.27832ZM9 4.77832C9 7.2636 6.98528 9.27832 4.5 9.27832C2.01472 9.27832 0 7.2636 0 4.77832C0 2.29304 2.01472 0.27832 4.5 0.27832C6.98528 0.27832 9 2.29304 9 4.77832Z" fill="#005490" fill-opacity="0.61"/>
</svg>
