<svg width="6" height="70" viewBox="0 0 6 70" fill="none" xmlns="http://www.w3.org/2000/svg">
<path d="M3.22119 0.204427C1.74843 0.204427 0.554525 1.39833 0.554525 2.87109C0.554525 4.34385 1.74843 5.53776 3.22119 5.53776C4.69395 5.53776 5.88786 4.34385 5.88786 2.87109C5.88786 1.39833 4.69395 0.204427 3.22119 0.204427ZM2.72119 68.8711C2.72119 69.1472 2.94505 69.3711 3.22119 69.3711C3.49733 69.3711 3.72119 69.1472 3.72119 68.8711L2.72119 68.8711ZM2.72119 4.75681C2.72119 5.03295 2.94505 5.25681 3.22119 5.25681C3.49733 5.25681 3.72119 5.03295 3.72119 4.75681L2.72119 4.75681ZM3.72119 10.414C3.72119 10.1378 3.49733 9.91395 3.22119 9.91395C2.94505 9.91395 2.72119 10.1378 2.72119 10.414L3.72119 10.414ZM2.72119 14.1854C2.72119 14.4615 2.94505 14.6854 3.22119 14.6854C3.49733 14.6854 3.72119 14.4615 3.72119 14.1854L2.72119 14.1854ZM3.72119 19.8425C3.72119 19.5664 3.49733 19.3425 3.22119 19.3425C2.94505 19.3425 2.72119 19.5664 2.72119 19.8425L3.72119 19.8425ZM2.72119 23.614C2.72119 23.8901 2.94505 24.114 3.22119 24.114C3.49733 24.114 3.72119 23.8901 3.72119 23.614L2.72119 23.614ZM3.72119 29.2711C3.72119 28.995 3.49733 28.7711 3.22119 28.7711C2.94505 28.7711 2.72119 28.995 2.72119 29.2711L3.72119 29.2711ZM2.72119 33.0425C2.72119 33.3187 2.94505 33.5425 3.22119 33.5425C3.49733 33.5425 3.72119 33.3187 3.72119 33.0425L2.72119 33.0425ZM3.72119 38.6997C3.72119 38.4235 3.49733 38.1997 3.22119 38.1997C2.94505 38.1997 2.72119 38.4235 2.72119 38.6997L3.72119 38.6997ZM2.72119 42.4711C2.72119 42.7472 2.94505 42.9711 3.22119 42.9711C3.49733 42.9711 3.72119 42.7472 3.72119 42.4711L2.72119 42.4711ZM3.72119 48.1282C3.72119 47.8521 3.49733 47.6282 3.22119 47.6282C2.94505 47.6282 2.72119 47.8521 2.72119 48.1282L3.72119 48.1282ZM2.72119 51.8997C2.72119 52.1758 2.94505 52.3997 3.22119 52.3997C3.49733 52.3997 3.72119 52.1758 3.72119 51.8997L2.72119 51.8997ZM3.72119 57.5568C3.72119 57.2807 3.49733 57.0568 3.22119 57.0568C2.94505 57.0568 2.72119 57.2807 2.72119 57.5568L3.72119 57.5568ZM2.72119 61.3282C2.72119 61.6044 2.94505 61.8282 3.22119 61.8282C3.49733 61.8282 3.72119 61.6044 3.72119 61.3282L2.72119 61.3282ZM3.72119 66.9854C3.72119 66.7092 3.49733 66.4854 3.22119 66.4854C2.94505 66.4854 2.72119 66.7092 2.72119 66.9854L3.72119 66.9854ZM2.72119 2.87109L2.72119 4.75681L3.72119 4.75681L3.72119 2.87109L2.72119 2.87109ZM2.72119 10.414L2.72119 14.1854L3.72119 14.1854L3.72119 10.414L2.72119 10.414ZM2.72119 19.8425L2.72119 23.614L3.72119 23.614L3.72119 19.8425L2.72119 19.8425ZM2.72119 29.2711L2.72119 33.0425L3.72119 33.0425L3.72119 29.2711L2.72119 29.2711ZM2.72119 38.6997L2.72119 42.4711L3.72119 42.4711L3.72119 38.6997L2.72119 38.6997ZM2.72119 48.1282L2.72119 51.8997L3.72119 51.8997L3.72119 48.1282L2.72119 48.1282ZM2.72119 57.5568L2.72119 61.3282L3.72119 61.3282L3.72119 57.5568L2.72119 57.5568ZM2.72119 66.9854L2.72119 68.8711L3.72119 68.8711L3.72119 66.9854L2.72119 66.9854Z" fill="#162082"/>
</svg>
