<svg width="51" height="8" viewBox="0 0 51 8" fill="none" xmlns="http://www.w3.org/2000/svg">
<g opacity="0.9">
<path d="M50.9284 4.51373C50.8637 4.77219 50.7776 4.86553 50.4904 5.00553C50.0632 5.21014 44.0863 6.57424 43.634 6.57065C43.3109 6.56706 43.1063 6.37322 43.0596 6.02501C43.0094 5.65527 43.2355 5.43271 43.7776 5.32501C44.9012 5.10245 47.3171 4.55322 47.3243 4.51732C47.335 4.47065 44.255 3.97527 43.1673 3.84963C42.0222 3.71681 41.8176 3.6486 41.6309 3.3363C41.4084 2.96296 41.4981 2.6004 41.8714 2.37783C42.1586 2.20552 42.5212 2.20911 43.6735 2.39578L44.0432 2.45681L43.713 2.22348C43.4689 2.05117 43.3396 1.9004 43.2176 1.63835C43.0094 1.2004 43.0812 0.934757 43.4581 0.708603C43.7884 0.511168 44.115 0.590141 45.734 1.25783C47.1771 1.85014 47.4248 1.97578 49.3022 3.03117C50.8745 3.91065 51.0396 4.06142 50.9284 4.51373ZM40.8735 2.90552C40.8304 3.23937 40.5109 3.53014 40.1986 3.51937C40.0694 3.51578 39.5525 3.45835 39.0319 3.39014C38.5186 3.32553 37.675 3.23937 37.1653 3.19988C36.6555 3.1604 36.1853 3.09219 36.1278 3.04552C35.5176 2.56091 35.7904 1.65271 36.5622 1.60604C36.9463 1.58091 40.335 2.09783 40.5253 2.20912C40.7802 2.3563 40.9094 2.61834 40.8735 2.90552ZM34.3904 2.11219C34.4263 2.40296 34.2468 2.76911 33.9848 2.92347C33.7945 3.03476 33.4607 3.01322 31.6048 2.76552C29.6986 2.51065 29.4796 2.44604 29.2678 2.09065C28.9555 1.57014 29.2714 1.02091 29.9499 0.89886C30.2084 0.852193 30.9658 0.934755 32.635 1.18604C34.1032 1.41219 34.315 1.52347 34.3904 2.11219ZM27.8427 1.5845C27.8607 1.73527 27.8284 1.95065 27.7673 2.07989C27.5555 2.52142 27.3366 2.56809 25.714 2.51783C24.8848 2.49271 24.0017 2.47476 23.7576 2.47835C23.0935 2.48912 22.7417 2.36347 22.555 2.05476C22.3396 1.69219 22.4186 1.32604 22.7704 1.05681C23.1222 0.791168 23.7396 0.744499 25.8037 0.827063C27.4694 0.895268 27.7673 1.00655 27.8427 1.5845ZM20.1104 2.20912C20.0925 2.34912 19.9812 2.56809 19.8663 2.69373C19.6617 2.9163 19.5971 2.93065 17.7053 3.15681C15.4796 3.42245 15.1278 3.39732 14.8622 2.95578C14.7294 2.73681 14.7114 2.61117 14.7725 2.36706C14.9125 1.80706 15.1996 1.70655 17.393 1.44091C18.574 1.29732 19.3889 1.24347 19.5468 1.29373C19.8843 1.40142 20.1571 1.84655 20.1104 2.20912ZM12.7443 3.77783C12.6402 4.19424 12.3745 4.34142 11.5309 4.45271C11.1612 4.50296 10.2602 4.65014 9.52784 4.78296C8.79195 4.91578 8.08477 4.99835 7.95195 4.96604C7.15502 4.77578 7.094 3.7886 7.85861 3.46194C8.12066 3.35065 10.8094 2.89117 11.7571 2.79783C12.2381 2.75117 12.4607 2.85527 12.6868 3.23578C12.7837 3.4045 12.8017 3.55886 12.7443 3.77783ZM5.6581 5.19578C5.60425 5.33219 5.49297 5.47937 5.40323 5.53322C5.26323 5.61578 2.06477 6.89014 1.49759 7.09117C0.944766 7.28501 0.366818 6.78604 0.506818 6.23322C0.589382 5.91014 0.711433 5.83476 1.68784 5.52963C2.1222 5.39322 3.034 5.07373 3.73041 4.81527C5.15913 4.28399 5.34938 4.27322 5.60425 4.69681C5.71913 4.89424 5.72989 5.00912 5.6581 5.19578Z" fill="#232323"/>
</g>
</svg>
