<svg width="6" height="70" viewBox="0 0 6 70" fill="none" xmlns="http://www.w3.org/2000/svg">
<path d="M3.02124 0.204427C1.54848 0.204427 0.354574 1.39833 0.354573 2.87109C0.354573 4.34385 1.54848 5.53776 3.02124 5.53776C4.494 5.53776 5.68791 4.34385 5.68791 2.87109C5.68791 1.39833 4.494 0.204427 3.02124 0.204427ZM2.52124 68.8711C2.52124 69.1472 2.74509 69.3711 3.02124 69.3711C3.29738 69.3711 3.52124 69.1472 3.52124 68.8711L2.52124 68.8711ZM2.52124 4.75681C2.52124 5.03295 2.7451 5.25681 3.02124 5.25681C3.29738 5.25681 3.52124 5.03295 3.52124 4.75681L2.52124 4.75681ZM3.52124 10.414C3.52124 10.1378 3.29738 9.91395 3.02124 9.91395C2.7451 9.91395 2.52124 10.1378 2.52124 10.414L3.52124 10.414ZM2.52124 14.1854C2.52124 14.4615 2.7451 14.6854 3.02124 14.6854C3.29738 14.6854 3.52124 14.4615 3.52124 14.1854L2.52124 14.1854ZM3.52124 19.8425C3.52124 19.5664 3.29738 19.3425 3.02124 19.3425C2.7451 19.3425 2.52124 19.5664 2.52124 19.8425L3.52124 19.8425ZM2.52124 23.614C2.52124 23.8901 2.7451 24.114 3.02124 24.114C3.29738 24.114 3.52124 23.8901 3.52124 23.614L2.52124 23.614ZM3.52124 29.2711C3.52124 28.995 3.29738 28.7711 3.02124 28.7711C2.7451 28.7711 2.52124 28.995 2.52124 29.2711L3.52124 29.2711ZM2.52124 33.0425C2.52124 33.3187 2.7451 33.5425 3.02124 33.5425C3.29738 33.5425 3.52124 33.3187 3.52124 33.0425L2.52124 33.0425ZM3.52124 38.6997C3.52124 38.4235 3.29738 38.1997 3.02124 38.1997C2.7451 38.1997 2.52124 38.4235 2.52124 38.6997L3.52124 38.6997ZM2.52124 42.4711C2.52124 42.7472 2.7451 42.9711 3.02124 42.9711C3.29738 42.9711 3.52124 42.7472 3.52124 42.4711L2.52124 42.4711ZM3.52124 48.1282C3.52124 47.8521 3.29738 47.6282 3.02124 47.6282C2.7451 47.6282 2.52124 47.8521 2.52124 48.1282L3.52124 48.1282ZM2.52124 51.8997C2.52124 52.1758 2.7451 52.3997 3.02124 52.3997C3.29738 52.3997 3.52124 52.1758 3.52124 51.8997L2.52124 51.8997ZM3.52124 57.5568C3.52124 57.2807 3.29738 57.0568 3.02124 57.0568C2.7451 57.0568 2.52124 57.2807 2.52124 57.5568L3.52124 57.5568ZM2.52124 61.3282C2.52124 61.6044 2.7451 61.8282 3.02124 61.8282C3.29738 61.8282 3.52124 61.6044 3.52124 61.3282L2.52124 61.3282ZM3.52124 66.9854C3.52124 66.7092 3.29738 66.4854 3.02124 66.4854C2.7451 66.4854 2.52124 66.7092 2.52124 66.9854L3.52124 66.9854ZM2.52124 2.87109L2.52124 4.75681L3.52124 4.75681L3.52124 2.87109L2.52124 2.87109ZM2.52124 10.414L2.52124 14.1854L3.52124 14.1854L3.52124 10.414L2.52124 10.414ZM2.52124 19.8425L2.52124 23.614L3.52124 23.614L3.52124 19.8425L2.52124 19.8425ZM2.52124 29.2711L2.52124 33.0425L3.52124 33.0425L3.52124 29.2711L2.52124 29.2711ZM2.52124 38.6997L2.52124 42.4711L3.52124 42.4711L3.52124 38.6997L2.52124 38.6997ZM2.52124 48.1282L2.52124 51.8997L3.52124 51.8997L3.52124 48.1282L2.52124 48.1282ZM2.52124 57.5568L2.52124 61.3282L3.52124 61.3282L3.52124 57.5568L2.52124 57.5568ZM2.52124 66.9854L2.52124 68.8711L3.52124 68.8711L3.52124 66.9854L2.52124 66.9854Z" fill="#BEBEBE"/>
</svg>
