<svg width="28" height="25" viewBox="0 0 28 25" fill="none" xmlns="http://www.w3.org/2000/svg">
<path d="M14.3378 2.32644C14.3378 2.32644 12.5012 9.43777 6.12317 10.8231L16.2365 10.8631C16.2365 10.8631 19.2765 6.03444 17.9465 2.35777C17.5805 1.34644 16.5405 0.68044 15.4972 0.919773C14.9478 1.04644 14.4545 1.42244 14.3378 2.32644Z" fill="url(#paint0_linear_51_2899)"/>
<g opacity="0.3">
<path d="M6.72917 10.6711C6.53184 10.7271 6.32984 10.7784 6.12317 10.8231L6.36584 10.8244C6.48917 10.7751 6.60984 10.7244 6.72917 10.6711Z" fill="url(#paint1_linear_51_2899)"/>
<path d="M17.9465 2.35777C17.5805 1.34644 16.5411 0.68044 15.4978 0.919773C15.2185 0.983773 14.9545 1.11377 14.7465 1.34311C15.6038 1.37644 16.3838 1.97377 16.6898 2.82044C17.7718 5.81111 15.9631 9.56311 15.2498 10.8598L16.2365 10.8638C16.2365 10.8638 19.2765 6.03444 17.9465 2.35777Z" fill="url(#paint2_linear_51_2899)"/>
</g>
<path d="M24.4566 12.8551H24.4272C24.9966 12.8418 25.6799 12.6058 26.2366 12.2311C27.6932 11.2518 27.1079 8.89309 25.4286 8.57976C25.2951 8.55513 25.1596 8.54285 25.0239 8.54309H14.6159C12.4886 8.54309 10.4072 9.07509 8.49124 10.0051C7.80457 10.3384 7.01457 10.6298 6.1239 10.8184V22.8964L9.05323 23.8778C11.0174 24.5356 13.0752 24.8711 15.1466 24.8711H21.3499C22.3792 24.8711 23.3026 24.0978 23.3599 23.0631C23.3752 22.8053 23.3382 22.5471 23.251 22.304C23.1638 22.0609 23.0283 21.838 22.8526 21.6488C22.6769 21.4595 22.4647 21.3078 22.2288 21.2028C21.9929 21.0978 21.7381 21.0416 21.4799 21.0378H22.9552C24.0566 21.0378 25.0446 20.2098 25.1052 19.1038C25.1218 18.8278 25.0821 18.5513 24.9888 18.2911C24.8954 18.0309 24.7502 17.7923 24.562 17.5897C24.3738 17.3872 24.1465 17.225 23.8938 17.1128C23.6412 17.0006 23.3683 16.9408 23.0919 16.9371H24.5712C24.8477 16.9362 25.1211 16.879 25.3748 16.769C25.6284 16.6589 25.857 16.4984 26.0467 16.2972C26.2363 16.096 26.3829 15.8583 26.4777 15.5985C26.5725 15.3388 26.6134 15.0625 26.5979 14.7864C26.5399 13.6824 25.5552 12.8551 24.4566 12.8551Z" fill="url(#paint3_linear_51_2899)"/>
<path d="M25.1445 12.0718H21.9425C21.5535 12.0718 21.1805 11.9172 20.9054 11.6422C20.6304 11.3671 20.4758 10.9941 20.4758 10.6051V10.5971C20.4758 10.2081 20.6304 9.83506 20.9054 9.56001C21.1805 9.28496 21.5535 9.13043 21.9425 9.13043H25.1445C25.5334 9.13061 25.9062 9.28521 26.1812 9.56024C26.4561 9.83528 26.6105 10.2082 26.6105 10.5971V10.6058C26.6105 10.7984 26.5726 10.9891 26.4989 11.167C26.4251 11.345 26.3171 11.5067 26.1809 11.6429C26.0447 11.779 25.883 11.8871 25.7051 11.9608C25.5272 12.0345 25.3364 12.0724 25.1438 12.0724L25.1445 12.0718Z" fill="url(#paint4_linear_51_2899)"/>
<path d="M24.7772 16.3205H21.5746C21.1856 16.3205 20.8125 16.1659 20.5375 15.8909C20.2624 15.6158 20.1079 15.2428 20.1079 14.8538V14.8458C20.1079 14.4568 20.2624 14.0838 20.5375 13.8087C20.8125 13.5336 21.1856 13.3791 21.5746 13.3791H24.7766C25.1654 13.3793 25.5383 13.5339 25.8132 13.8089C26.0881 14.084 26.2426 14.4569 26.2426 14.8458V14.8545C26.2426 15.0471 26.2046 15.2378 26.1309 15.4157C26.0572 15.5937 25.9492 15.7554 25.813 15.8915C25.6768 16.0277 25.5151 16.1358 25.3372 16.2095C25.1592 16.2832 24.9685 16.3211 24.7759 16.3211L24.7772 16.3205Z" fill="url(#paint5_linear_51_2899)"/>
<path d="M23.2672 20.4691H20.0652C19.8726 20.4691 19.6819 20.4312 19.5039 20.3575C19.326 20.2837 19.1643 20.1757 19.0281 20.0395C18.8919 19.9033 18.7839 19.7416 18.7102 19.5637C18.6364 19.3858 18.5985 19.195 18.5985 19.0024V18.9938C18.5985 18.6048 18.753 18.2317 19.0281 17.9567C19.3031 17.6816 19.6762 17.5271 20.0652 17.5271H23.2672C23.6562 17.5271 24.0292 17.6816 24.3043 17.9567C24.5793 18.2317 24.7338 18.6048 24.7338 18.9938V19.0024C24.7338 19.195 24.6959 19.3858 24.6222 19.5637C24.5485 19.7416 24.4405 19.9033 24.3043 20.0395C24.1681 20.1757 24.0064 20.2837 23.8284 20.3575C23.6505 20.4312 23.4598 20.4691 23.2672 20.4691Z" fill="url(#paint6_linear_51_2899)"/>
<path d="M21.4439 24.4931H18.2419C17.853 24.4929 17.4801 24.3383 17.2052 24.0633C16.9303 23.7882 16.7759 23.4153 16.7759 23.0264V23.0178C16.7761 22.6289 16.9307 22.256 17.2057 21.9811C17.4807 21.7062 17.8537 21.5518 18.2425 21.5518H21.4439C21.8329 21.5518 22.2059 21.7063 22.481 21.9813C22.756 22.2564 22.9105 22.6294 22.9105 23.0184V23.0264C22.9105 23.4154 22.756 23.7885 22.481 24.0635C22.2059 24.3386 21.8329 24.4931 21.4439 24.4931Z" fill="url(#paint7_linear_51_2899)"/>
<path d="M5.41186 9.12109H1.37586C0.82453 9.12109 0.377197 9.55909 0.377197 10.0991V23.8931C0.377197 24.4331 0.823864 24.8711 1.37586 24.8711H5.41186C5.96386 24.8711 6.4112 24.4331 6.4112 23.8931V10.0991C6.4112 9.55909 5.96386 9.12109 5.41186 9.12109Z" fill="url(#paint8_linear_51_2899)"/>
<path d="M2.38851 13.7138C2.94374 13.7138 3.39385 13.261 3.39385 12.7024C3.39385 12.1439 2.94374 11.6911 2.38851 11.6911C1.83328 11.6911 1.38318 12.1439 1.38318 12.7024C1.38318 13.261 1.83328 13.7138 2.38851 13.7138Z" fill="url(#paint9_linear_51_2899)"/>
<path opacity="0.2" d="M24.4565 12.8551H24.4272C24.9965 12.8418 25.6798 12.6058 26.2365 12.2311C27.6932 11.2518 27.1078 8.89309 25.4285 8.57976C25.295 8.55516 25.1596 8.54288 25.0238 8.54309H21.8545C21.8752 8.85643 21.9018 9.16776 21.9018 9.48576C21.9018 17.2244 15.6658 23.4971 7.97316 23.4971C7.95049 23.4971 7.92916 23.4944 7.90649 23.4938L9.05249 23.8778C11.0167 24.5356 13.0744 24.8711 15.1458 24.8711H21.3492C22.3785 24.8711 23.3018 24.0978 23.3592 23.0631C23.3745 22.8053 23.3375 22.5471 23.2503 22.304C23.1631 22.0609 23.0276 21.838 22.8519 21.6488C22.6762 21.4595 22.464 21.3078 22.2281 21.2028C21.9921 21.0978 21.7374 21.0416 21.4792 21.0378H22.9545C24.0558 21.0378 25.0432 20.2098 25.1045 19.1038C25.121 18.8278 25.0814 18.5513 24.988 18.2911C24.8947 18.0309 24.7495 17.7923 24.5613 17.5897C24.3731 17.3872 24.1458 17.225 23.8931 17.1128C23.6404 17.0006 23.3676 16.9408 23.0912 16.9371H24.5705C24.847 16.9362 25.1204 16.879 25.374 16.769C25.6277 16.6589 25.8563 16.4984 26.0459 16.2972C26.2355 16.096 26.3822 15.8583 26.477 15.5985C26.5717 15.3388 26.6126 15.0625 26.5972 14.7864C26.5392 13.6824 25.5552 12.8551 24.4565 12.8551Z" fill="url(#paint10_linear_51_2899)"/>
<path opacity="0.3" d="M5.41186 9.12109H1.37586C0.824531 9.12109 0.377197 9.55909 0.377197 10.0991V10.1184H1.62386C1.62386 10.1184 5.07186 10.1251 5.07186 14.3898V24.8711H5.41186C5.96386 24.8711 6.41053 24.4331 6.41053 23.8931V10.0991C6.41053 9.55909 5.96386 9.12109 5.41186 9.12109Z" fill="url(#paint11_linear_51_2899)"/>
<defs>
<linearGradient id="paint0_linear_51_2899" x1="16.1758" y1="1.57377" x2="11.3778" y2="10.4944" gradientUnits="userSpaceOnUse">
<stop stop-color="#FFDFCF"/>
<stop offset="1" stop-color="#FFA78F"/>
</linearGradient>
<linearGradient id="paint1_linear_51_2899" x1="6.51517" y1="10.5818" x2="6.36717" y2="10.8571" gradientUnits="userSpaceOnUse">
<stop stop-color="#FFDFCF"/>
<stop offset="1" stop-color="#FFA78F"/>
</linearGradient>
<linearGradient id="paint2_linear_51_2899" x1="17.6525" y1="2.10444" x2="14.3631" y2="8.21977" gradientUnits="userSpaceOnUse">
<stop stop-color="#FFDFCF"/>
<stop offset="1" stop-color="#FFA78F"/>
</linearGradient>
<linearGradient id="paint3_linear_51_2899" x1="10.9519" y1="9.35376" x2="21.7686" y2="22.8358" gradientUnits="userSpaceOnUse">
<stop stop-color="#FFDFCF"/>
<stop offset="1" stop-color="#FFA78F"/>
</linearGradient>
<linearGradient id="paint4_linear_51_2899" x1="24.0905" y1="10.0451" x2="26.3345" y2="7.76243" gradientUnits="userSpaceOnUse">
<stop stop-color="#FFDFCF" stop-opacity="0"/>
<stop offset="1" stop-color="#FFA78F"/>
</linearGradient>
<linearGradient id="paint5_linear_51_2899" x1="23.7232" y1="14.2938" x2="25.9672" y2="12.0111" gradientUnits="userSpaceOnUse">
<stop stop-color="#FFDFCF" stop-opacity="0"/>
<stop offset="1" stop-color="#FFA78F"/>
</linearGradient>
<linearGradient id="paint6_linear_51_2899" x1="22.2132" y1="18.4418" x2="24.4572" y2="16.1598" gradientUnits="userSpaceOnUse">
<stop stop-color="#FFDFCF" stop-opacity="0"/>
<stop offset="1" stop-color="#FFA78F"/>
</linearGradient>
<linearGradient id="paint7_linear_51_2899" x1="20.3905" y1="22.4658" x2="22.6345" y2="20.1838" gradientUnits="userSpaceOnUse">
<stop stop-color="#FFDFCF" stop-opacity="0"/>
<stop offset="1" stop-color="#FFA78F"/>
</linearGradient>
<linearGradient id="paint8_linear_51_2899" x1="3.39386" y1="24.1351" x2="3.39386" y2="9.69376" gradientUnits="userSpaceOnUse">
<stop stop-color="#197BFF"/>
<stop offset="1" stop-color="#27B2FF"/>
</linearGradient>
<linearGradient id="paint9_linear_51_2899" x1="2.38851" y1="13.6198" x2="2.38851" y2="11.7644" gradientUnits="userSpaceOnUse">
<stop stop-color="#5F5F60"/>
<stop offset="1" stop-color="#282828"/>
</linearGradient>
<linearGradient id="paint10_linear_51_2899" x1="15.5545" y1="14.2858" x2="22.8105" y2="23.2944" gradientUnits="userSpaceOnUse">
<stop stop-color="#FFDFCF"/>
<stop offset="1" stop-color="#FFA78F"/>
</linearGradient>
<linearGradient id="paint11_linear_51_2899" x1="3.39386" y1="24.1351" x2="3.39386" y2="9.69376" gradientUnits="userSpaceOnUse">
<stop stop-color="#197BFF"/>
<stop offset="1" stop-color="#27B2FF"/>
</linearGradient>
</defs>
</svg>
