<svg width="28" height="25" viewBox="0 0 28 25" fill="none" xmlns="http://www.w3.org/2000/svg">
<path d="M14.5985 23.4157C14.5985 23.4157 12.7618 16.3044 6.38379 14.9191L16.4971 14.8791C16.4971 14.8791 19.5371 19.7077 18.2071 23.3844C17.8411 24.3957 16.8011 25.0617 15.7578 24.8224C15.2085 24.6957 14.7151 24.3197 14.5985 23.4157Z" fill="url(#paint0_linear_56_4729)"/>
<g opacity="0.3">
<path d="M6.98979 15.0711C6.79246 15.0151 6.59046 14.9637 6.38379 14.9191L6.62646 14.9177C6.74979 14.9671 6.87046 15.0177 6.98979 15.0711Z" fill="url(#paint1_linear_56_4729)"/>
<path d="M18.2071 23.3844C17.8411 24.3957 16.8017 25.0617 15.7584 24.8224C15.4791 24.7584 15.2151 24.6284 15.0071 24.3991C15.8644 24.3657 16.6444 23.7684 16.9504 22.9217C18.0324 19.9311 16.2237 16.1791 15.5104 14.8824L16.4971 14.8784C16.4971 14.8784 19.5371 19.7077 18.2071 23.3844Z" fill="url(#paint2_linear_56_4729)"/>
</g>
<path d="M24.7172 12.8871H24.6879C25.2572 12.9004 25.9405 13.1364 26.4972 13.5111C27.9539 14.4904 27.3685 16.8491 25.6892 17.1624C25.5557 17.1871 25.4202 17.1993 25.2845 17.1991H14.8765C12.7492 17.1991 10.6679 16.6671 8.75186 15.7371C8.06519 15.4038 7.27519 15.1124 6.38452 14.9238V2.84576L9.31385 1.86443C11.278 1.20654 13.3358 0.871086 15.4072 0.871092H21.6105C22.6399 0.871092 23.5632 1.64443 23.6205 2.67909C23.6359 2.93688 23.5988 3.1951 23.5116 3.43818C23.4244 3.68125 23.2889 3.90415 23.1132 4.09342C22.9375 4.28268 22.7253 4.4344 22.4894 4.53941C22.2535 4.64443 21.9987 4.70056 21.7405 4.70443H23.2159C24.3172 4.70443 25.3052 5.53243 25.3659 6.63843C25.3824 6.9144 25.3428 7.19086 25.2494 7.45109C25.156 7.71132 25.0109 7.94991 24.8227 8.15244C24.6345 8.35497 24.4072 8.51723 24.1545 8.62941C23.9018 8.74158 23.629 8.80135 23.3525 8.80509H24.8319C25.1083 8.80602 25.3817 8.86323 25.6354 8.97324C25.8891 9.08325 26.1177 9.24375 26.3073 9.44497C26.4969 9.64619 26.6436 9.88391 26.7383 10.1437C26.8331 10.4034 26.874 10.6797 26.8585 10.9558C26.8005 12.0598 25.8159 12.8871 24.7172 12.8871Z" fill="url(#paint3_linear_56_4729)"/>
<path d="M25.4051 13.6704H22.2031C21.8141 13.6704 21.4411 13.8249 21.166 14.1C20.891 14.3751 20.7365 14.7481 20.7365 15.1371V15.1451C20.7365 15.5341 20.891 15.9071 21.166 16.1822C21.4411 16.4572 21.8141 16.6118 22.2031 16.6118H25.4051C25.794 16.6116 26.1669 16.457 26.4418 16.1819C26.7167 15.9069 26.8711 15.534 26.8711 15.1451V15.1364C26.8711 14.9438 26.8332 14.7531 26.7595 14.5752C26.6858 14.3972 26.5777 14.2355 26.4415 14.0993C26.3053 13.9631 26.1437 13.8551 25.9657 13.7814C25.7878 13.7077 25.5971 13.6698 25.4044 13.6698L25.4051 13.6704Z" fill="url(#paint4_linear_56_4729)"/>
<path d="M25.0379 9.42173H21.8352C21.4462 9.42173 21.0732 9.57626 20.7981 9.85131C20.5231 10.1264 20.3685 10.4994 20.3685 10.8884V10.8964C20.3685 11.2854 20.5231 11.6584 20.7981 11.9335C21.0732 12.2085 21.4462 12.3631 21.8352 12.3631H25.0372C25.4261 12.3629 25.7989 12.2083 26.0739 11.9333C26.3488 11.6582 26.5032 11.2853 26.5032 10.8964V10.8877C26.5032 10.6951 26.4653 10.5044 26.3916 10.3265C26.3178 10.1485 26.2098 9.98684 26.0736 9.85064C25.9374 9.71445 25.7757 9.60642 25.5978 9.53271C25.4199 9.459 25.2291 9.42107 25.0365 9.42107L25.0379 9.42173Z" fill="url(#paint5_linear_56_4729)"/>
<path d="M23.5278 5.27309H20.3258C20.1332 5.27309 19.9425 5.31102 19.7645 5.38473C19.5866 5.45844 19.4249 5.56647 19.2887 5.70266C19.1525 5.83886 19.0445 6.00054 18.9708 6.17849C18.8971 6.35643 18.8591 6.54715 18.8591 6.73975V6.74842C18.8591 7.13741 19.0137 7.51046 19.2887 7.78551C19.5638 8.06056 19.9368 8.21509 20.3258 8.21509H23.5278C23.9168 8.21509 24.2898 8.06056 24.5649 7.78551C24.8399 7.51046 24.9945 7.13741 24.9945 6.74842V6.73975C24.9945 6.54715 24.9565 6.35643 24.8828 6.17849C24.8091 6.00054 24.7011 5.83886 24.5649 5.70266C24.4287 5.56647 24.267 5.45844 24.0891 5.38473C23.9111 5.31102 23.7204 5.27309 23.5278 5.27309Z" fill="url(#paint6_linear_56_4729)"/>
<path d="M21.7045 1.2491H18.5025C18.1136 1.24927 17.7407 1.40388 17.4658 1.67891C17.1909 1.95394 17.0365 2.32689 17.0365 2.71576V2.72443C17.0367 3.1133 17.1913 3.48618 17.4663 3.76109C17.7413 4.036 18.1143 4.19043 18.5032 4.19043H21.7045C22.0935 4.19043 22.4665 4.03591 22.7416 3.76085C23.0166 3.4858 23.1712 3.11275 23.1712 2.72376V2.71576C23.1712 2.32678 23.0166 1.95373 22.7416 1.67867C22.4665 1.40362 22.0935 1.2491 21.7045 1.2491Z" fill="url(#paint7_linear_56_4729)"/>
<path d="M5.67248 16.6211H1.63648C1.08515 16.6211 0.637817 16.1831 0.637817 15.6431V1.84909C0.637817 1.30909 1.08448 0.871094 1.63648 0.871094H5.67248C6.22448 0.871094 6.67182 1.30909 6.67182 1.84909V15.6431C6.67182 16.1831 6.22448 16.6211 5.67248 16.6211Z" fill="url(#paint8_linear_56_4729)"/>
<path d="M5.67248 16.6211H1.63648C1.08515 16.6211 0.637817 16.1831 0.637817 15.6431V1.84909C0.637817 1.30909 1.08448 0.871094 1.63648 0.871094H5.67248C6.22448 0.871094 6.67182 1.30909 6.67182 1.84909V15.6431C6.67182 16.1831 6.22448 16.6211 5.67248 16.6211Z" fill="#FF3838"/>
<path d="M2.64913 12.0284C3.20436 12.0284 3.65447 12.4812 3.65447 13.0398C3.65447 13.5983 3.20436 14.0511 2.64913 14.0511C2.0939 14.0511 1.6438 13.5983 1.6438 13.0398C1.6438 12.4812 2.0939 12.0284 2.64913 12.0284Z" fill="url(#paint9_linear_56_4729)"/>
<path opacity="0.2" d="M24.7171 12.8871H24.6878C25.2571 12.9004 25.9404 13.1364 26.4971 13.5111C27.9538 14.4904 27.3684 16.8491 25.6891 17.1624C25.5556 17.187 25.4202 17.1993 25.2844 17.1991H22.1151C22.1358 16.8858 22.1624 16.5744 22.1624 16.2564C22.1624 8.51776 15.9264 2.24509 8.23378 2.24509C8.21111 2.24509 8.18978 2.24776 8.16711 2.24843L9.31311 1.86443C11.2773 1.20658 13.335 0.871124 15.4064 0.871094H21.6098C22.6391 0.871094 23.5624 1.64443 23.6198 2.67909C23.6351 2.93688 23.5981 3.1951 23.5109 3.43818C23.4237 3.68125 23.2882 3.90415 23.1125 4.09342C22.9368 4.28268 22.7246 4.4344 22.4887 4.53941C22.2527 4.64443 21.998 4.70056 21.7398 4.70443H23.2151C24.3164 4.70443 25.3038 5.53243 25.3651 6.63843C25.3816 6.9144 25.342 7.19086 25.2487 7.45109C25.1553 7.71132 25.0101 7.94991 24.8219 8.15244C24.6337 8.35497 24.4064 8.51723 24.1537 8.62941C23.901 8.74158 23.6282 8.80135 23.3518 8.80509H24.8311C25.1076 8.80602 25.381 8.86323 25.6347 8.97324C25.8883 9.08325 26.1169 9.24375 26.3065 9.44497C26.4962 9.64619 26.6428 9.88392 26.7376 10.1437C26.8324 10.4034 26.8733 10.6797 26.8578 10.9558C26.7998 12.0598 25.8158 12.8871 24.7171 12.8871Z" fill="url(#paint10_linear_56_4729)"/>
<defs>
<linearGradient id="paint0_linear_56_4729" x1="16.4365" y1="24.1684" x2="11.6385" y2="15.2477" gradientUnits="userSpaceOnUse">
<stop stop-color="#FFDFCF"/>
<stop offset="1" stop-color="#FFA78F"/>
</linearGradient>
<linearGradient id="paint1_linear_56_4729" x1="6.77579" y1="15.1604" x2="6.62779" y2="14.8851" gradientUnits="userSpaceOnUse">
<stop stop-color="#FFDFCF"/>
<stop offset="1" stop-color="#FFA78F"/>
</linearGradient>
<linearGradient id="paint2_linear_56_4729" x1="17.9131" y1="23.6377" x2="14.6237" y2="17.5224" gradientUnits="userSpaceOnUse">
<stop stop-color="#FFDFCF"/>
<stop offset="1" stop-color="#FFA78F"/>
</linearGradient>
<linearGradient id="paint3_linear_56_4729" x1="11.2125" y1="16.3884" x2="22.0292" y2="2.90643" gradientUnits="userSpaceOnUse">
<stop stop-color="#FFDFCF"/>
<stop offset="1" stop-color="#FFA78F"/>
</linearGradient>
<linearGradient id="paint4_linear_56_4729" x1="24.3511" y1="15.6971" x2="26.5951" y2="17.9798" gradientUnits="userSpaceOnUse">
<stop stop-color="#FFDFCF" stop-opacity="0"/>
<stop offset="1" stop-color="#FFA78F"/>
</linearGradient>
<linearGradient id="paint5_linear_56_4729" x1="23.9839" y1="11.4484" x2="26.2279" y2="13.7311" gradientUnits="userSpaceOnUse">
<stop stop-color="#FFDFCF" stop-opacity="0"/>
<stop offset="1" stop-color="#FFA78F"/>
</linearGradient>
<linearGradient id="paint6_linear_56_4729" x1="22.4738" y1="7.30042" x2="24.7178" y2="9.58242" gradientUnits="userSpaceOnUse">
<stop stop-color="#FFDFCF" stop-opacity="0"/>
<stop offset="1" stop-color="#FFA78F"/>
</linearGradient>
<linearGradient id="paint7_linear_56_4729" x1="20.6512" y1="3.27643" x2="22.8952" y2="5.55843" gradientUnits="userSpaceOnUse">
<stop stop-color="#FFDFCF" stop-opacity="0"/>
<stop offset="1" stop-color="#FFA78F"/>
</linearGradient>
<linearGradient id="paint8_linear_56_4729" x1="3.65448" y1="1.60709" x2="3.65448" y2="16.0484" gradientUnits="userSpaceOnUse">
<stop stop-color="#197BFF"/>
<stop offset="1" stop-color="#27B2FF"/>
</linearGradient>
<linearGradient id="paint9_linear_56_4729" x1="2.64913" y1="12.1224" x2="2.64913" y2="13.9778" gradientUnits="userSpaceOnUse">
<stop stop-color="#5F5F60"/>
<stop offset="1" stop-color="#282828"/>
</linearGradient>
<linearGradient id="paint10_linear_56_4729" x1="15.8151" y1="11.4564" x2="23.0711" y2="2.44776" gradientUnits="userSpaceOnUse">
<stop stop-color="#FFDFCF"/>
<stop offset="1" stop-color="#FFA78F"/>
</linearGradient>
</defs>
</svg>
