<svg width="51" height="8" viewBox="0 0 51 8" fill="none" xmlns="http://www.w3.org/2000/svg">
<g opacity="0.9">
<path d="M50.6784 3.22846C50.6137 2.97 50.5276 2.87666 50.2404 2.73666C49.8132 2.53205 43.8363 1.16795 43.384 1.17154C43.0609 1.17512 42.8563 1.36897 42.8096 1.71717C42.7594 2.08692 42.9855 2.30948 43.5276 2.41717C44.6512 2.63974 47.0671 3.18897 47.0743 3.22487C47.085 3.27153 44.005 3.76692 42.9173 3.89256C41.7722 4.02538 41.5676 4.09358 41.3809 4.40589C41.1584 4.77923 41.2481 5.14179 41.6214 5.36436C41.9086 5.53666 42.2712 5.53307 43.4235 5.34641L43.7932 5.28538L43.463 5.51871C43.2189 5.69102 43.0896 5.84179 42.9676 6.10384C42.7594 6.54179 42.8312 6.80743 43.2081 7.03358C43.5384 7.23102 43.865 7.15205 45.484 6.48435C46.9271 5.89205 47.1748 5.7664 49.0522 4.71102C50.6245 3.83153 50.7896 3.68076 50.6784 3.22846ZM40.6235 4.83666C40.5804 4.50282 40.2609 4.21205 39.9486 4.22282C39.8194 4.22641 39.3025 4.28384 38.7819 4.35205C38.2686 4.41666 37.425 4.50282 36.9153 4.5423C36.4055 4.58179 35.9353 4.65 35.8778 4.69666C35.2676 5.18128 35.5404 6.08948 36.3122 6.13615C36.6963 6.16128 40.085 5.64435 40.2753 5.53307C40.5302 5.38589 40.6594 5.12384 40.6235 4.83666ZM34.1404 5.63C34.1763 5.33923 33.9968 4.97307 33.7348 4.81871C33.5445 4.70743 33.2107 4.72897 31.3548 4.97666C29.4486 5.23153 29.2296 5.29615 29.0178 5.65153C28.7055 6.17205 29.0214 6.72128 29.6999 6.84333C29.9584 6.88999 30.7158 6.80743 32.385 6.55615C33.8532 6.33 34.065 6.21871 34.1404 5.63ZM27.5927 6.15769C27.6107 6.00692 27.5784 5.79153 27.5173 5.6623C27.3055 5.22076 27.0866 5.1741 25.464 5.22435C24.6348 5.24948 23.7517 5.26743 23.5076 5.26384C22.8435 5.25307 22.4917 5.37871 22.305 5.68743C22.0896 6.04999 22.1686 6.41615 22.5204 6.68538C22.8722 6.95102 23.4896 6.99769 25.5537 6.91512C27.2194 6.84692 27.5173 6.73564 27.5927 6.15769ZM19.8604 5.53307C19.8425 5.39307 19.7312 5.1741 19.6163 5.04846C19.4117 4.82589 19.3471 4.81153 17.4553 4.58538C15.2296 4.31974 14.8778 4.34487 14.6122 4.78641C14.4794 5.00538 14.4614 5.13102 14.5225 5.37512C14.6625 5.93512 14.9496 6.03564 17.143 6.30128C18.324 6.44487 19.1389 6.49871 19.2968 6.44846C19.6343 6.34076 19.9071 5.89564 19.8604 5.53307ZM12.4943 3.96436C12.3902 3.54795 12.1245 3.40076 11.2809 3.28948C10.9112 3.23923 10.0102 3.09205 9.27784 2.95923C8.54195 2.82641 7.83477 2.74384 7.70195 2.77615C6.90502 2.9664 6.844 3.95359 7.60861 4.28025C7.87066 4.39153 10.5594 4.85102 11.5071 4.94435C11.9881 4.99102 12.2107 4.88692 12.4368 4.5064C12.5337 4.33769 12.5517 4.18333 12.4943 3.96436ZM5.4081 2.5464C5.35425 2.40999 5.24297 2.26282 5.15323 2.20897C5.01323 2.12641 1.81477 0.852046 1.24759 0.651021C0.694766 0.457174 0.116818 0.956149 0.256818 1.50897C0.339382 1.83205 0.461433 1.90743 1.43784 2.21256C1.8722 2.34897 2.784 2.66846 3.48041 2.92692C4.90913 3.4582 5.09938 3.46897 5.35425 3.04538C5.46913 2.84794 5.47989 2.73307 5.4081 2.5464Z" fill="#232323"/>
</g>
</svg>
